<svg width="18" height="18" viewBox="0 0 18 18" fill="none" xmlns="http://www.w3.org/2000/svg">
<path d="M6.87898 12.1815L8.99998 10.0605L11.121 12.1815L12.1815 11.121L10.0605 9L12.1815 6.879L11.121 5.8185L8.99998 7.9395L6.87898 5.8185L5.81848 6.879L7.93948 9L5.81848 11.121L6.87898 12.1815Z" fill="#C4C4C4" fill-opacity="0.6"/>
<path d="M9 16.5C13.1355 16.5 16.5 13.1355 16.5 9C16.5 4.8645 13.1355 1.5 9 1.5C4.8645 1.5 1.5 4.8645 1.5 9C1.5 13.1355 4.8645 16.5 9 16.5ZM9 3C12.3082 3 15 5.69175 15 9C15 12.3082 12.3082 15 9 15C5.69175 15 3 12.3082 3 9C3 5.69175 5.69175 3 9 3Z" fill="#C4C4C4" fill-opacity="0.6"/>
</svg>
