<svg width="18" height="18" viewBox="0 0 18 18" fill="none" xmlns="http://www.w3.org/2000/svg">
<path d="M6.53025 14.7803L13.5 7.8105L10.1895 4.5L3.21975 11.4698C3.1238 11.5658 3.05564 11.6861 3.0225 11.8178L2.25 15.75L6.1815 14.9775C6.3135 14.9445 6.43425 14.8763 6.53025 14.7803ZM15.75 5.5605C16.0312 5.27921 16.1892 4.89775 16.1892 4.5C16.1892 4.10226 16.0312 3.72079 15.75 3.4395L14.5605 2.25C14.2792 1.96879 13.8977 1.81082 13.5 1.81082C13.1023 1.81082 12.7208 1.96879 12.4395 2.25L11.25 3.4395L14.5605 6.75L15.75 5.5605Z" fill="#C4C4C4" fill-opacity="0.6"/>
</svg>
