<svg width="30" height="31" viewBox="0 0 30 31" fill="none" xmlns="http://www.w3.org/2000/svg">
<path d="M12.5 23C14.7187 22.9995 16.8735 22.2568 18.6213 20.89L24.1162 26.385L25.8838 24.6175L20.3888 19.1225C21.7563 17.3746 22.4995 15.2193 22.5 13C22.5 7.48625 18.0138 3 12.5 3C6.98625 3 2.5 7.48625 2.5 13C2.5 18.5138 6.98625 23 12.5 23ZM12.5 5.5C16.6362 5.5 20 8.86375 20 13C20 17.1362 16.6362 20.5 12.5 20.5C8.36375 20.5 5 17.1362 5 13C5 8.86375 8.36375 5.5 12.5 5.5Z" fill="#C4C4C4" fill-opacity="0.6"/>
<path d="M14.265 11.2325C14.7388 11.7075 15 12.335 15 13H17.5C17.5011 12.343 17.372 11.6924 17.1201 11.0856C16.8682 10.4788 16.4986 9.92802 16.0325 9.46499C14.14 7.57499 10.8588 7.57499 8.96753 9.46499L10.7325 11.235C11.6825 10.2875 13.32 10.29 14.265 11.2325Z" fill="#C4C4C4" fill-opacity="0.6"/>
</svg>
